<?xml version="1.0" encoding="UTF-8"?>
<svg xmlns="http://www.w3.org/2000/svg" version="1.1" width="156px" height="27px" style="shape-rendering:geometricPrecision; text-rendering:geometricPrecision; image-rendering:optimizeQuality; fill-rule:evenodd; clip-rule:evenodd" xmlns:xlink="http://www.w3.org/1999/xlink">
<g><path style="opacity:1" fill="#090909" d="M -0.5,-0.5 C 51.5,-0.5 103.5,-0.5 155.5,-0.5C 155.5,5.83333 155.5,12.1667 155.5,18.5C 153.908,14.0684 152.741,9.40174 152,4.5C 151.632,3.09001 150.799,2.09001 149.5,1.5C 145.768,5.94943 142.268,10.6161 139,15.5C 137.659,18.022 136.826,20.6887 136.5,23.5C 140.697,23.8063 142.697,21.8063 142.5,17.5C 145.167,17.5 147.833,17.5 150.5,17.5C 150.324,21.1921 151.991,23.1921 155.5,23.5C 155.5,24.5 155.5,25.5 155.5,26.5C 103.5,26.5 51.5,26.5 -0.5,26.5C -0.5,17.5 -0.5,8.5 -0.5,-0.5 Z"/></g>
<g><path style="opacity:1" fill="#f0f0f0" d="M 2.5,0.5 C 7.76535,-0.42944 12.2654,0.903893 16,4.5C 16.782,7.25691 16.282,9.75691 14.5,12C 18.5,15.3333 18.5,18.6667 14.5,22C 10.4908,24.3838 6.32413,24.8838 2,23.5C 1.20194,15.754 1.3686,8.08732 2.5,0.5 Z"/></g>
<g><path style="opacity:1" fill="#efefef" d="M 77.5,0.5 C 84.0547,1.52804 89.5547,4.52804 94,9.5C 97.3318,18.701 94.1652,23.701 84.5,24.5C 81.7466,24.6467 79.2466,23.9801 77,22.5C 76.2036,15.0869 76.3703,7.75355 77.5,0.5 Z"/></g>
<g><path style="opacity:1" fill="#e9e9e9" d="M 20.5,1.5 C 21.8333,1.5 23.1667,1.5 24.5,1.5C 24.334,6.84372 24.5006,12.1771 25,17.5C 27.1775,21.0655 29.8442,21.3988 33,18.5C 34.6415,13.292 35.6415,7.95864 36,2.5C 37.0113,1.66337 38.1779,1.33003 39.5,1.5C 39.7712,6.91275 39.2712,12.2461 38,17.5C 35.4621,23.6983 30.9621,25.8649 24.5,24C 20.6622,20.156 18.9955,15.4894 19.5,10C 19.6055,7.1158 19.9388,4.28246 20.5,1.5 Z"/></g>
<g><path style="opacity:1" fill="#f1f1f1" d="M 56.5,5.5 C 54.5,5.5 52.5,5.5 50.5,5.5C 50.1805,10.3633 50.5139,15.03 51.5,19.5C 53.1992,19.3398 54.8659,19.5065 56.5,20C 57.8333,21 57.8333,22 56.5,23C 51.8452,23.4992 47.1785,23.6658 42.5,23.5C 42.1667,20.5 43.5,19.1667 46.5,19.5C 46.5,14.8333 46.5,10.1667 46.5,5.5C 45.1266,5.65668 43.7932,5.49001 42.5,5C 41.5494,4.28248 41.3828,3.44915 42,2.5C 46.7477,1.36513 51.581,1.19846 56.5,2C 57.7911,3.29167 57.7911,4.45834 56.5,5.5 Z"/></g>
<g><path style="opacity:1" fill="#e9e9e9" d="M 60.5,0.5 C 61.4959,0.414228 62.3292,0.747561 63,1.5C 63.4995,7.82458 63.6662,14.1579 63.5,20.5C 67.1352,19.8857 70.8019,19.5524 74.5,19.5C 74.7804,22.3882 73.4471,23.8882 70.5,24C 66.577,24.7927 62.7436,24.626 59,23.5C 58.3555,15.7183 58.8555,8.05162 60.5,0.5 Z"/></g>
<g><path style="opacity:1" fill="#ebebeb" d="M 102.5,0.5 C 112.203,0.380519 115.703,5.04719 113,14.5C 110.536,21.1569 105.702,24.4903 98.5,24.5C 98.33,23.1779 98.6634,22.0113 99.5,21C 102.112,20.3605 104.446,19.1938 106.5,17.5C 98.971,16.151 96.1376,11.8177 98,4.5C 99.3968,2.92975 100.897,1.59641 102.5,0.5 Z"/></g>
<g><path style="opacity:1" fill="#ededed" d="M 119.5,1.5 C 124.5,1.5 129.5,1.5 134.5,1.5C 134.5,2.83333 134.5,4.16667 134.5,5.5C 132.833,5.5 131.167,5.5 129.5,5.5C 129.666,10.5111 129.499,15.5111 129,20.5C 127.381,25.6312 124.215,26.7978 119.5,24C 116.603,22.2845 115.269,19.7845 115.5,16.5C 116.873,16.3433 118.207,16.51 119.5,17C 120.305,18.9717 121.639,20.4717 123.5,21.5C 124.086,21.2907 124.586,20.9574 125,20.5C 125.499,15.5111 125.666,10.5111 125.5,5.5C 121.759,6.40147 119.759,5.06814 119.5,1.5 Z"/></g>
<g><path style="opacity:1" fill="#ebebeb" d="M 155.5,18.5 C 155.5,20.1667 155.5,21.8333 155.5,23.5C 151.991,23.1921 150.324,21.1921 150.5,17.5C 147.833,17.5 145.167,17.5 142.5,17.5C 142.697,21.8063 140.697,23.8063 136.5,23.5C 136.826,20.6887 137.659,18.022 139,15.5C 142.268,10.6161 145.768,5.94943 149.5,1.5C 150.799,2.09001 151.632,3.09001 152,4.5C 152.741,9.40174 153.908,14.0684 155.5,18.5 Z"/></g>
<g><path style="opacity:1" fill="#0f0f0f" d="M 5.5,4.5 C 10.3855,3.40485 12.0522,5.07151 10.5,9.5C 8.92908,10.3094 7.26241,10.6427 5.5,10.5C 5.5,8.5 5.5,6.5 5.5,4.5 Z"/></g>
<g><path style="opacity:1" fill="#101010" d="M 103.5,4.5 C 109.488,4.66395 110.821,7.16395 107.5,12C 101.403,12.1475 100.07,9.64746 103.5,4.5 Z"/></g>
<g><path style="opacity:1" fill="#6d6d6d" d="M 82.5,6.5 C 81.5139,10.97 81.1805,15.6367 81.5,20.5C 80.1863,15.6523 80.1863,10.6523 81.5,5.5C 82.1067,5.62358 82.44,5.95691 82.5,6.5 Z"/></g>
<g><path style="opacity:1" fill="#080808" d="M 82.5,6.5 C 86.7502,7.74963 89.7502,10.4163 91.5,14.5C 90.3617,19.9307 87.0284,21.9307 81.5,20.5C 81.1805,15.6367 81.5139,10.97 82.5,6.5 Z"/></g>
<g><path style="opacity:1" fill="#919191" d="M 56.5,5.5 C 55.0813,6.45115 53.4147,6.78448 51.5,6.5C 51.5,10.8333 51.5,15.1667 51.5,19.5C 50.5139,15.03 50.1805,10.3633 50.5,5.5C 52.5,5.5 54.5,5.5 56.5,5.5 Z"/></g>
<g><path style="opacity:1" fill="#080808" d="M 147.5,9.5 C 148.782,10.7082 148.782,12.0416 147.5,13.5C 146.708,12.3002 146.708,10.9669 147.5,9.5 Z"/></g>
<g><path style="opacity:1" fill="#121212" d="M 5.5,14.5 C 8.79765,14.0162 11.4643,15.0162 13.5,17.5C 11.0671,19.0538 8.40046,19.7204 5.5,19.5C 5.5,17.8333 5.5,16.1667 5.5,14.5 Z"/></g>
</svg>