<?xml version="1.0" encoding="UTF-8"?>
<svg xmlns="http://www.w3.org/2000/svg" version="1.1" width="157px" height="30px" style="shape-rendering:geometricPrecision; text-rendering:geometricPrecision; image-rendering:optimizeQuality; fill-rule:evenodd; clip-rule:evenodd" xmlns:xlink="http://www.w3.org/1999/xlink">
<g><path style="opacity:1" fill="#fffbfa" d="M -0.5,-0.5 C 51.8333,-0.5 104.167,-0.5 156.5,-0.5C 156.5,9.5 156.5,19.5 156.5,29.5C 104.167,29.5 51.8333,29.5 -0.5,29.5C -0.5,19.5 -0.5,9.5 -0.5,-0.5 Z"/></g>
<g><path style="opacity:1" fill="#ff9655" d="M 1.5,1.5 C 4.51838,1.33537 7.51838,1.50204 10.5,2C 15.5683,4.6091 16.5683,8.27577 13.5,13C 17.5,16.3333 17.5,19.6667 13.5,23C 9.4908,25.3838 5.32413,25.8838 1,24.5C 0.201936,16.754 0.368602,9.08732 1.5,1.5 Z"/></g>
<g><path style="opacity:1" fill="#ff9757" d="M 76.5,1.5 C 83.0717,2.53582 88.5717,5.53582 93,10.5C 95.3511,15.5572 94.5178,20.0572 90.5,24C 85.5578,26.1207 80.7245,25.954 76,23.5C 75.2036,16.0869 75.3703,8.75355 76.5,1.5 Z"/></g>
<g><path style="opacity:1" fill="#ff9655" d="M 19.5,2.5 C 20.8333,2.5 22.1667,2.5 23.5,2.5C 23.334,7.84372 23.5006,13.1771 24,18.5C 26.1775,22.0655 28.8442,22.3988 32,19.5C 33.916,14.3506 34.916,9.01722 35,3.5C 36.0113,2.66337 37.1779,2.33003 38.5,2.5C 38.8933,8.67801 38.0599,14.678 36,20.5C 31.5829,26.1827 26.5829,26.8493 21,22.5C 19.6226,15.9236 19.1226,9.25691 19.5,2.5 Z"/></g>
<g><path style="opacity:1" fill="#ff9656" d="M 55.5,6.5 C 53.5,6.5 51.5,6.5 49.5,6.5C 49.1805,11.3633 49.5139,16.03 50.5,20.5C 52.1667,20.5 53.8333,20.5 55.5,20.5C 55.5,21.8333 55.5,23.1667 55.5,24.5C 50.8333,24.5 46.1667,24.5 41.5,24.5C 41.1667,21.5 42.5,20.1667 45.5,20.5C 45.5,15.8333 45.5,11.1667 45.5,6.5C 44.1266,6.65668 42.7932,6.49001 41.5,6C 40.5494,5.28248 40.3828,4.44915 41,3.5C 45.7477,2.36513 50.581,2.19846 55.5,3C 56.7911,4.29167 56.7911,5.45834 55.5,6.5 Z"/></g>
<g><path style="opacity:1" fill="#ff9858" d="M 59.5,1.5 C 60.4959,1.41423 61.3292,1.74756 62,2.5C 62.4995,8.82458 62.6662,15.1579 62.5,21.5C 66.1352,20.8857 69.8019,20.5524 73.5,20.5C 73.1913,23.3455 71.5246,24.8455 68.5,25C 64.9085,25.7886 61.4085,25.6219 58,24.5C 57.7631,16.7509 58.2631,9.08421 59.5,1.5 Z"/></g>
<g><path style="opacity:1" fill="#ff9656" d="M 101.5,1.5 C 110.992,1.44407 114.492,6.11074 112,15.5C 109.573,22.1433 104.739,25.4767 97.5,25.5C 97.281,24.325 97.6143,23.325 98.5,22.5C 101.844,21.8325 104.511,20.1658 106.5,17.5C 98.7646,17.6062 95.5979,13.9395 97,6.5C 98.025,4.31305 99.525,2.64638 101.5,1.5 Z"/></g>
<g><path style="opacity:1" fill="#ff9757" d="M 118.5,2.5 C 123.5,2.5 128.5,2.5 133.5,2.5C 133.616,5.91032 131.95,7.24365 128.5,6.5C 128.666,10.5138 128.499,14.5138 128,18.5C 125.914,27.9374 121.581,28.9374 115,21.5C 114.51,20.2068 114.343,18.8734 114.5,17.5C 115.873,17.3433 117.207,17.51 118.5,18C 119.305,19.9717 120.639,21.4717 122.5,22.5C 123.086,22.2907 123.586,21.9574 124,21.5C 124.499,16.5111 124.666,11.5111 124.5,6.5C 120.759,7.40147 118.759,6.06814 118.5,2.5 Z"/></g>
<g><path style="opacity:1" fill="#ff9656" d="M 147.5,2.5 C 148.496,2.41423 149.329,2.74756 150,3.5C 151.819,10.4506 153.319,17.4506 154.5,24.5C 151.344,24.4709 149.678,22.8043 149.5,19.5C 144.693,17.5218 141.359,18.8551 139.5,23.5C 138.311,24.4287 136.978,24.762 135.5,24.5C 138.437,16.6283 142.437,9.29496 147.5,2.5 Z"/></g>
<g><path style="opacity:1" fill="#fff7f2" d="M 4.5,5.5 C 7.5959,4.90656 9.92923,5.90656 11.5,8.5C 9.92923,11.0934 7.5959,12.0934 4.5,11.5C 4.5,9.5 4.5,7.5 4.5,5.5 Z"/></g>
<g><path style="opacity:1" fill="#fff9f5" d="M 101.5,5.5 C 108.004,5.13765 109.671,7.63765 106.5,13C 100.785,13.401 99.1187,10.901 101.5,5.5 Z"/></g>
<g><path style="opacity:1" fill="#ffd3b7" d="M 81.5,7.5 C 80.5139,11.97 80.1805,16.6367 80.5,21.5C 79.1863,16.6523 79.1863,11.6523 80.5,6.5C 81.1067,6.62358 81.44,6.95691 81.5,7.5 Z"/></g>
<g><path style="opacity:1" fill="#fffbf9" d="M 81.5,7.5 C 85.9611,8.55797 88.9611,11.2246 90.5,15.5C 89.3617,20.9307 86.0284,22.9307 80.5,21.5C 80.1805,16.6367 80.5139,11.97 81.5,7.5 Z"/></g>
<g><path style="opacity:1" fill="#ffece1" d="M 146.5,10.5 C 149.548,13.5035 148.882,14.6702 144.5,14C 145.305,12.8873 145.972,11.7206 146.5,10.5 Z"/></g>
<g><path style="opacity:1" fill="#ffc39e" d="M 55.5,6.5 C 54.0813,7.45115 52.4147,7.78448 50.5,7.5C 50.5,11.8333 50.5,16.1667 50.5,20.5C 49.5139,16.03 49.1805,11.3633 49.5,6.5C 51.5,6.5 53.5,6.5 55.5,6.5 Z"/></g>
<g><path style="opacity:1" fill="#fff5ef" d="M 4.5,15.5 C 7.90785,14.828 10.5745,15.828 12.5,18.5C 10.1416,20.2866 7.47498,21.2866 4.5,21.5C 4.5,19.5 4.5,17.5 4.5,15.5 Z"/></g>
</svg>